# xmcd
#
# Track frame offsets: 
#        150
#        18218
#        36839
#        61653
#        82225
#        103533
#        121866
#        150077
#        171840
#        196771
#        216974
#
# Disc length: 3136 seconds
#
# Revision: 1
# Processed by: cddbd v1.5.2PL0 Copyright (c) Steve Scherf et al.
# Submitted via: ExactAudioCopyFreeDBPlugin 1.0
#
DISCID=800c3e0b
DTITLE=Groove Armada - Black Light
DYEAR=2010
DGENRE=Dance
TTITLE0=Groove Armada (feat. Jess Larrabee) - Warsaw
TTITLE1=Groove Armada (feat. Nick Littlemore) - History
TTITLE2=Groove Armada (feat. Jess Larrabee) - Cards To Your Heart
TTITLE3=Groove Armada (feat. Nick Littlemore) - I Won't Kneel
TTITLE4=Groove Armada (feat. Saint Saviour) - Shameless
TTITLE5=Groove Armada (feat. Nick Littlemore) - Look Me In The Eye Sis
TTITLE5=ter
TTITLE6=Groove Armada (feat. Fenech-Soler and Saint Saviour) - Paper Rom
TTITLE6=ance
TTITLE7=Groove Armada (feat. Nick Littlemore) - Time and Space
TTITLE8=Groove Armada (feat. Bryan Ferry) - Not Forgotten
TTITLE9=Groove Armada (feat. Saint Saviour and Jess Larrabee) - Fall Sil
TTITLE9=ent
TTITLE10=Groove Armada (feat. Will Young) - Just For Tonight
EXTD=
EXTT0=
EXTT1=
EXTT2=
EXTT3=
EXTT4=
EXTT5=
EXTT6=
EXTT7=
EXTT8=
EXTT9=
EXTT10=
PLAYORDER=
